# xmcd CD database file
#
# Track frame offsets:
#	150
#	14785
#	29915
#	46174
#	60841
#	75459
#	89096
#	100369
#	120564
#	134476
#	148485
#	162869
#	176509
#	189759
#	203217
#	218183
#	233345
#	244016
#	258677
#	272887
#
# Disc length: 3828 seconds
#
# Revision: 0
# Processed by: cddbd v1.5PL3 Copyright (c) Steve Scherf et al.
# Submitted via: CDex 1.51
#
DISCID=240ef214
DTITLE=Frank Sinatra - The Masters
DYEAR=1997
DGENRE=Jazz
TTITLE0=Stardust
TTITLE1=Polka Dots and Moonbeams
TTITLE2=The One I Love Belongs to Somebody Else
TTITLE3=Fools Rush In
TTITLE4=People Will Say We're in Love
TTITLE5=You'll Never Know
TTITLE6=It's a Lovely Day Tomorrow
TTITLE7=Without a Song
TTITLE8=Night and Day
TTITLE9=I'll be Seeing You
TTITLE10=I'll Never Smile Again
TTITLE11=Whispering
TTITLE12=In The Blue of The Evening
TTITLE13=Trad Winds
TTITLE14=East of The Sun Zand West of The Moon)
TTITLE15=From The Bottom of My Heart
TTITLE16=Ciribiribin
TTITLE17=Oh ! Look at Me Now
TTITLE18=Devil May Care
TTITLE19=Love Me As I Am
EXTD=YEAR: 1997
EXTT0=
EXTT1=
EXTT2=
EXTT3=
EXTT4=
EXTT5=
EXTT6=
EXTT7=
EXTT8=
EXTT9=
EXTT10=
EXTT11=
EXTT12=
EXTT13=
EXTT14=
EXTT15=
EXTT16=
EXTT17=
EXTT18=
EXTT19=
PLAYORDER=
